<svg width="92" height="24" viewBox="0 0 92 24" fill="none" xmlns="http://www.w3.org/2000/svg">
<path d="M79.8878 5.74321L77.9459 17.9146C77.9386 17.9593 77.9413 18.005 77.9534 18.0486C77.9659 18.0922 77.9874 18.1326 78.0171 18.1669C78.0469 18.2012 78.0836 18.2287 78.1248 18.2473C78.1664 18.2659 78.2113 18.2753 78.2565 18.2748H80.5548C80.6358 18.2755 80.7147 18.2472 80.7766 18.195C80.8385 18.1429 80.8797 18.0703 80.8927 17.9904L82.8347 5.81904C82.842 5.77433 82.8392 5.72859 82.8271 5.685C82.8147 5.64144 82.7928 5.60107 82.7634 5.56676C82.7337 5.53242 82.697 5.505 82.6557 5.48635C82.6142 5.46769 82.5693 5.45829 82.5238 5.4588H80.2257C80.1444 5.45723 80.0653 5.48519 80.0031 5.53752C79.9409 5.58984 79.8999 5.66298 79.8878 5.74321ZM77.4338 9.29512H75.2532C75.1722 9.29433 75.0936 9.32254 75.0317 9.37462C74.9696 9.42674 74.9286 9.49926 74.9159 9.57904L74.8437 10.0271C74.8437 10.0271 73.1499 8.19517 70.1514 9.4332C68.4309 10.1421 67.6052 11.6066 67.2537 12.6795C67.2537 12.6795 66.1386 15.9402 68.6608 17.735C68.6608 17.735 70.9998 19.4612 73.6334 17.6287L73.5879 17.9146C73.5776 17.9817 73.5894 18.0505 73.6215 18.1103C73.654 18.1701 73.705 18.2177 73.7671 18.2458C73.8081 18.2651 73.8533 18.2748 73.8988 18.2748H76.0807C76.1623 18.2764 76.2411 18.2484 76.3033 18.1961C76.3655 18.1438 76.4064 18.0706 76.4186 17.9904L77.746 9.65533C77.7532 9.61068 77.7508 9.56497 77.7384 9.52144C77.7256 9.47794 77.7038 9.43775 77.6738 9.40374C77.6444 9.36913 77.6073 9.34141 77.5658 9.32257C77.5245 9.3037 77.4793 9.29467 77.4338 9.29512ZM74.2249 13.9016C74.1399 14.4839 73.8448 15.0153 73.395 15.396C72.943 15.7781 72.3679 15.9844 71.7758 15.9769C71.5434 15.9796 71.3123 15.946 71.0902 15.8774C70.149 15.5781 69.6115 14.6828 69.7659 13.7123C69.8517 13.1302 70.1472 12.5993 70.597 12.2188C71.0487 11.8365 71.6232 11.6296 72.2153 11.636C72.4476 11.6336 72.6788 11.6675 72.9005 11.7364C73.8478 12.0339 74.3829 12.9305 74.2273 13.9021H74.2249V13.9016ZM62.5808 14.1319C63.7635 14.1319 64.9071 13.7128 65.8056 12.9508C66.7022 12.1914 67.2955 11.1364 67.4784 9.97738C67.8603 7.56648 65.9584 5.4622 63.2624 5.4622H58.919C58.838 5.46141 58.7594 5.48971 58.6975 5.54192C58.6357 5.59409 58.5944 5.66674 58.5817 5.74661L56.6391 17.918C56.6288 17.9851 56.6406 18.0539 56.6728 18.1137C56.7052 18.1735 56.7562 18.2211 56.8184 18.2492C56.8599 18.2685 56.9045 18.2782 56.95 18.2782H59.2496C59.3306 18.279 59.4095 18.2507 59.4713 18.1985C59.5332 18.1463 59.5742 18.0736 59.5869 17.9938L60.1572 14.4197C60.1693 14.3393 60.2103 14.2661 60.2724 14.2137C60.3346 14.1613 60.4138 14.1332 60.4951 14.1348L62.5808 14.1319ZM64.5046 9.86778C64.3626 10.7591 63.6664 11.4153 62.3351 11.4153H60.6325L61.1497 8.17391H62.8214C64.1982 8.17634 64.6462 8.98029 64.5046 9.87021V9.86778Z" fill="#0070E0"/>
<path d="M54.0191 9.50176L51.3886 13.8982L50.0536 9.5341C50.033 9.46448 49.9899 9.40348 49.9311 9.36038C49.8726 9.31727 49.8013 9.29434 49.7285 9.2951H47.3549C47.2933 9.29428 47.2336 9.3156 47.1868 9.35519C47.1398 9.39474 47.1089 9.44989 47.0998 9.51043C47.094 9.5506 47.098 9.59155 47.1116 9.62971L49.504 16.9807L47.3403 20.4448C47.3218 20.4733 47.3094 20.5052 47.3039 20.5387C47.2985 20.5721 47.2997 20.6063 47.3079 20.6392C47.3161 20.6721 47.3309 20.703 47.3512 20.73C47.3719 20.757 47.3977 20.7796 47.4274 20.7963C47.4668 20.8189 47.512 20.8306 47.5575 20.8301H50.1143C50.1871 20.8303 50.259 20.8118 50.3227 20.7763C50.3864 20.7407 50.4398 20.6894 50.4777 20.6273L57.1595 9.68233C57.1838 9.64424 57.1971 9.60025 57.1981 9.55512C57.199 9.51001 57.1874 9.46551 57.1647 9.42644C57.1422 9.38722 57.1095 9.35476 57.07 9.33241C57.0306 9.31008 56.986 9.29871 56.9408 9.29944H54.3849C54.3115 9.29877 54.2393 9.31706 54.1753 9.35252C54.111 9.38795 54.0573 9.43939 54.0191 9.50176ZM46.009 9.2951H43.8265C43.7452 9.29431 43.6667 9.32264 43.6045 9.37494C43.5426 9.42723 43.5013 9.5 43.4886 9.57999L43.4179 10.0276C43.4179 10.0276 41.7229 8.19564 38.7241 9.43366C37.0045 10.1425 36.1783 11.607 35.8282 12.6799C35.8282 12.6799 34.712 15.9406 37.2339 17.7354C37.2339 17.7354 39.5732 19.4616 42.207 17.6292L42.1615 17.9151C42.1506 17.9822 42.1624 18.051 42.1949 18.1109C42.2273 18.1708 42.2783 18.2183 42.3405 18.2463C42.3817 18.2656 42.4266 18.2753 42.4721 18.2753H44.6543C44.7353 18.2759 44.8139 18.2475 44.8757 18.1953C44.9376 18.1432 44.9786 18.0707 44.9916 17.9909L46.3193 9.65579C46.3302 9.58854 46.3184 9.51963 46.2862 9.45966C46.2538 9.39972 46.2025 9.35206 46.1403 9.32407C46.0991 9.30511 46.0545 9.29522 46.009 9.2951ZM42.8 13.9025C42.7139 14.4842 42.4187 15.0147 41.9692 15.395C41.5178 15.7771 40.9433 15.9838 40.3512 15.9773C40.1192 15.9799 39.8883 15.9464 39.6666 15.8779C38.7257 15.5785 38.1888 14.6833 38.3435 13.7123C38.4293 13.1289 38.726 12.597 39.1773 12.2164C39.6305 11.8341 40.2068 11.6282 40.8005 11.6365C41.0325 11.634 41.2646 11.6679 41.4863 11.7369C42.4239 12.0344 42.9578 12.9305 42.8028 13.9025H42.8ZM31.1563 14.1324C32.3369 14.1317 33.4786 13.7126 34.378 12.9498C35.2737 12.1905 35.8667 11.1358 36.049 9.97739C36.4312 7.56695 34.529 5.46266 31.8339 5.46266H27.4901C27.4091 5.46184 27.3304 5.49005 27.2684 5.54214C27.2064 5.59422 27.1652 5.66678 27.1522 5.74658L25.2161 17.9146C25.2053 17.9818 25.217 18.0507 25.2493 18.1107C25.2817 18.1707 25.3329 18.2183 25.3952 18.2463C25.4363 18.2651 25.4813 18.2753 25.5268 18.2753H27.8251C27.9063 18.276 27.985 18.2477 28.0471 18.1954C28.1091 18.1431 28.1502 18.0704 28.1629 17.9904L28.7322 14.4163C28.7443 14.336 28.7852 14.2629 28.8474 14.2106C28.9096 14.1583 28.9887 14.1303 29.07 14.1319L31.1563 14.1324ZM33.0797 9.86776C32.9381 10.7591 32.2425 11.4153 30.9109 11.4153H29.2085L29.7245 8.17389H31.3962C32.7734 8.17631 33.2211 8.98075 33.0797 9.87019V9.86776Z" fill="#003087"/>
<path d="M16.2987 6.08775C16.3504 3.40019 14.1282 1.33838 11.0724 1.33838H4.75182C4.60453 1.33831 4.46205 1.39071 4.35006 1.48614C4.23807 1.58157 4.1639 1.71376 4.14097 1.8589L1.60845 17.6449C1.59712 17.7165 1.60147 17.7896 1.62119 17.8593C1.64091 17.929 1.67554 17.9936 1.72269 18.0487C1.76985 18.1038 1.8284 18.148 1.89433 18.1783C1.96026 18.2086 2.03199 18.2244 2.1046 18.2244H5.84913L5.26394 21.8796C5.2526 21.9511 5.25697 22.0243 5.27668 22.094C5.2964 22.1637 5.33104 22.2283 5.37818 22.2834C5.42535 22.3384 5.48389 22.3826 5.54983 22.413C5.61575 22.4433 5.68749 22.459 5.76007 22.459H8.81052C8.95766 22.459 9.08885 22.4064 9.20115 22.3113C9.31247 22.2157 9.33085 22.0839 9.35409 21.9385L10.2496 16.6831C10.2723 16.5382 10.3464 16.3499 10.4582 16.2543C10.57 16.1587 10.6678 16.1066 10.8154 16.1066H12.6819C15.6747 16.1066 18.2135 13.9844 18.6777 11.0332C19.0064 8.93854 18.1061 7.0327 16.2987 6.08775Z" fill="#001C64"/>
<path d="M6.65952 12.4029L5.72677 18.3025L5.14109 22.0031C5.12984 22.0746 5.13424 22.1478 5.15401 22.2174C5.17382 22.2871 5.20849 22.3517 5.25569 22.4067C5.30289 22.4617 5.36149 22.5059 5.42744 22.5362C5.49338 22.5664 5.56512 22.5821 5.63771 22.582H8.86627C9.01341 22.582 9.15571 22.5295 9.26755 22.4341C9.37935 22.3386 9.45334 22.2065 9.47618 22.0615L10.3271 16.683C10.3501 16.5379 10.4241 16.4058 10.536 16.3104C10.6479 16.2149 10.7903 16.1625 10.9375 16.1624H12.8378C15.8307 16.1624 18.3695 13.9848 18.8342 11.0336C19.1633 8.93892 18.1062 7.03259 16.2988 6.08765C16.2939 6.31072 16.2745 6.5333 16.2402 6.75398C15.776 9.70423 13.2362 11.8824 10.2443 11.8824H7.26991C7.12265 11.8826 6.98029 11.9351 6.86839 12.0306C6.75652 12.1261 6.68245 12.2578 6.65952 12.4029Z" fill="#0070E0"/>
<path d="M5.72607 18.3023H1.96992C1.89733 18.3023 1.82561 18.2866 1.7597 18.2562C1.69379 18.2259 1.63526 18.1817 1.58814 18.1266C1.54102 18.0715 1.50644 18.0069 1.48678 17.9372C1.46712 17.8675 1.46285 17.7944 1.47426 17.7229L4.00678 1.70265C4.02971 1.55759 4.10379 1.42547 4.21569 1.33005C4.32759 1.23463 4.46994 1.18218 4.61715 1.18213H11.0723C14.1281 1.18213 16.3503 3.40038 16.2985 6.08749C15.5381 5.6896 14.6446 5.46217 13.6658 5.46217H8.28427C8.13697 5.4621 7.99449 5.51452 7.8825 5.60995C7.77048 5.70538 7.69635 5.83757 7.67338 5.98268L6.6598 12.4028L5.72559 18.3023H5.72607Z" fill="#003087"/>
</svg>
