<svg width="78" height="19" viewBox="0 0 78 19" fill="none" xmlns="http://www.w3.org/2000/svg">
<g clip-path="url(#clip0_612_2882)">
<path d="M20.639 4.75946V5.87146H19.502V8.13747H20.639V14.8425H23.488V8.13747H25.801V5.88747H23.488V4.86246C23.488 3.36446 24.727 3.25546 25.107 3.25546C25.359 3.25246 25.611 3.27046 25.86 3.30946V1.10146C25.431 0.982465 24.985 0.928465 24.539 0.940465C22.129 0.940465 20.639 2.40346 20.639 4.75946ZM30.028 6.11846L29.611 6.98346V4.89446L26.875 5.60746V14.8425H29.72V10.5005C29.72 8.59346 30.738 7.45646 32.44 7.45646C32.714 7.45346 32.989 7.47346 33.26 7.51346V4.78846C33.047 4.74946 32.831 4.73146 32.615 4.73346C31.726 4.73346 30.517 5.09346 30.028 6.11846ZM46.231 6.17046C46.069 5.69747 45.114 4.58246 43.131 4.58246C40.246 4.58246 38.147 6.78146 38.147 9.80546C38.147 12.8305 40.289 15.0745 43.24 15.0745C44.39 15.0745 45.448 14.6245 45.93 13.9295L46.327 13.3575V14.8495H49.053V0.876465L46.251 1.59346L46.231 6.17046ZM43.64 12.6445C42.371 12.6445 40.996 11.7635 40.996 9.82846C40.996 7.89346 42.318 7.03546 43.64 7.03546C44.962 7.03546 46.284 7.89946 46.284 9.82846C46.284 11.7565 44.909 12.6445 43.64 12.6445ZM67.619 10.7375L64.859 4.83346H61.677L66.079 13.6435L63.733 18.8545H66.713L73.125 4.83346H70.127L67.619 10.7375ZM34.228 14.8425H37.073L37.08 5.31846L34.235 6.04546L34.228 14.8425ZM36.013 1.19746C35.895 1.17646 35.775 1.16546 35.656 1.16546C35.179 1.16346 34.722 1.34846 34.387 1.67646C33.918 2.13246 33.745 2.80146 33.937 3.41846C34.129 4.03546 34.655 4.49946 35.305 4.62446C35.895 4.74346 36.506 4.56246 36.928 4.14546C37.397 3.69046 37.57 3.02146 37.379 2.40446C37.187 1.78846 36.662 1.32446 36.013 1.19746ZM58.062 6.17046C57.896 5.69446 56.928 4.58246 54.952 4.58246C52.064 4.58246 49.968 6.78146 49.968 9.80546C49.968 12.8305 52.11 15.0745 55.058 15.0745C56.211 15.0745 57.265 14.6245 57.751 13.9295L58.148 13.3575V14.8495H60.874V0.876465L58.072 1.59346L58.062 6.17046ZM55.467 12.6445C54.202 12.6445 52.824 11.7635 52.824 9.82846C52.824 7.89346 54.146 7.03546 55.467 7.03546C56.789 7.03546 58.111 7.89946 58.111 9.82846C58.111 11.7565 56.736 12.6445 55.467 12.6445ZM9.145 0.940465H6.144C6.141 3.97046 3.615 6.42546 0.5 6.42746V9.34946C5.272 9.34446 9.14 5.58247 9.145 0.940465ZM4.244 14.8365H7.248C7.252 11.8065 9.777 9.35146 12.893 9.34946V6.42746C8.12 6.43246 4.252 10.1935 4.244 14.8365ZM74.156 5.11246H74.602V6.26646H74.949V5.11246H75.395V4.83046H74.156V5.11246ZM76.892 4.83046L76.476 5.88747L76.056 4.83046H75.596V6.26646H75.937V5.24146L76.343 6.26646H76.604L77.014 5.24146V6.26646H77.355V4.83046H76.892Z" fill="white"/>
</g>
<defs>
<clipPath id="clip0_612_2882">
<rect width="77" height="18" fill="white" transform="translate(0.5 0.876465)"/>
</clipPath>
</defs>
</svg>
