<svg width="55" height="24" viewBox="0 0 55 24" fill="none" xmlns="http://www.w3.org/2000/svg">
<g clip-path="url(#clip0_612_2862)">
<path fill-rule="evenodd" clip-rule="evenodd" d="M54.3568 12.7479C54.3568 8.86193 52.5066 5.79565 48.9706 5.79565C45.4194 5.79565 43.271 8.86193 43.271 12.7175C43.271 17.2866 45.8074 19.5939 49.4479 19.5939C51.2234 19.5939 52.5662 19.184 53.5808 18.6072V15.5713C52.5662 16.0874 51.4024 16.4062 49.9253 16.4062C48.478 16.4062 47.1951 15.8901 47.0307 14.0989H54.327C54.327 13.9015 54.3568 13.1122 54.3568 12.7479ZM46.9861 11.3058C46.9861 9.59054 48.0155 8.8771 48.9557 8.8771C49.8657 8.8771 50.8357 9.59054 50.8357 11.3058H46.9861Z" fill="white"/>
<path fill-rule="evenodd" clip-rule="evenodd" d="M37.5117 5.79565C36.0495 5.79565 35.1094 6.49391 34.5873 6.97965L34.3934 6.03852H31.1108V23.7379L34.841 22.9334L34.8559 18.6376C35.3929 19.0322 36.1838 19.5939 37.4968 19.5939C40.1675 19.5939 42.5996 17.408 42.5996 12.5961C42.5847 8.19402 40.1228 5.79565 37.5117 5.79565ZM36.6165 16.2544C35.7362 16.2544 35.2139 15.9356 34.8559 15.5409L34.841 9.90932C35.2288 9.4691 35.766 9.16553 36.6165 9.16553C37.9742 9.16553 38.9143 10.7138 38.9143 12.7024C38.9143 14.7364 37.9891 16.2544 36.6165 16.2544Z" fill="white"/>
<path fill-rule="evenodd" clip-rule="evenodd" d="M25.9783 4.89928L29.7231 4.07973V0.998779L25.9783 1.80316V4.89928Z" fill="white"/>
<path d="M29.7231 6.05347H25.9783V19.3356H29.7231V6.05347Z" fill="white"/>
<path fill-rule="evenodd" clip-rule="evenodd" d="M21.9645 7.17692L21.7257 6.05364H18.5029V19.3357H22.233V10.3343C23.1133 9.16543 24.6053 9.37795 25.0678 9.54494V6.05364C24.5905 5.87147 22.8448 5.53753 21.9645 7.17692Z" fill="white"/>
<path fill-rule="evenodd" clip-rule="evenodd" d="M14.5044 2.75952L10.8638 3.54885L10.8489 15.7077C10.8489 17.9543 12.505 19.6088 14.7133 19.6088C15.9367 19.6088 16.832 19.3812 17.3243 19.1079V16.0265C16.8469 16.2238 14.4895 16.9221 14.4895 14.6755V9.28675H17.3243V6.05348H14.4895L14.5044 2.75952Z" fill="white"/>
<path fill-rule="evenodd" clip-rule="evenodd" d="M4.41817 9.90932C4.41817 9.3173 4.89563 9.08962 5.6864 9.08962C6.82036 9.08962 8.25273 9.43875 9.38668 10.0611V6.49391C8.14829 5.99299 6.92482 5.79565 5.6864 5.79565C2.65757 5.79565 0.643311 7.40469 0.643311 10.0915C0.643311 14.281 6.31308 13.6131 6.31308 15.4195C6.31308 16.1178 5.71627 16.3454 4.88071 16.3454C3.64232 16.3454 2.06075 15.8293 0.807436 15.1311V18.7438C2.19503 19.351 3.59756 19.6091 4.88071 19.6091C7.98415 19.6091 10.1178 18.0456 10.1178 15.3284C10.1029 10.8049 4.41817 11.6094 4.41817 9.90932Z" fill="white"/>
</g>
<defs>
<clipPath id="clip0_612_2862">
<rect width="54" height="22.91" fill="white" transform="translate(0.5 0.966553)"/>
</clipPath>
</defs>
</svg>
