<svg xmlns="http://www.w3.org/2000/svg" xmlns:xlink="http://www.w3.org/1999/xlink" viewBox="0 0 120 28"><g id="ss616390559_1"><path d="M 31.385 6.04 L 31.385 7.77 L 29.614 7.77 L 29.614 11.295 L 31.385 11.295 L 31.385 21.725 L 35.825 21.725 L 35.825 11.295 L 39.43 11.295 L 39.43 7.795 L 35.825 7.795 L 35.825 6.2 C 35.825 3.87 37.756 3.7 38.349 3.7 C 38.742 3.696 39.134 3.725 39.523 3.785 L 39.523 0.35 C 38.853 0.165 38.158 0.081 37.463 0.1 C 33.708 0.1 31.385 2.375 31.385 6.04 Z M 46.017 8.155 L 45.368 9.5 L 45.368 6.25 L 41.104 7.36 L 41.104 21.725 L 45.538 21.725 L 45.538 14.97 C 45.538 12.005 47.124 10.235 49.777 10.235 C 50.204 10.231 50.632 10.261 51.054 10.325 L 51.054 6.085 C 50.723 6.025 50.387 5.996 50.05 6 C 48.664 6 46.779 6.56 46.017 8.155 Z M 71.269 8.235 C 71.016 7.5 69.528 5.765 66.438 5.765 C 61.942 5.765 58.671 9.185 58.671 13.89 C 58.671 18.595 62.009 22.085 66.608 22.085 C 68.4 22.085 70.048 21.385 70.8 20.305 L 71.418 19.415 L 71.418 21.735 L 75.667 21.735 L 75.667 0 L 71.3 1.115 Z M 67.231 18.305 C 65.253 18.305 63.111 16.935 63.111 13.925 C 63.111 10.915 65.171 9.58 67.231 9.58 C 69.291 9.58 71.351 10.925 71.351 13.925 C 71.351 16.925 69.209 18.305 67.231 18.305 Z M 104.601 15.34 L 100.3 6.155 L 95.341 6.155 L 102.201 19.86 L 98.544 27.965 L 103.19 27.965 L 113.181 6.155 L 108.51 6.155 Z M 52.563 21.725 L 56.997 21.725 L 57.008 6.91 L 52.573 8.04 Z M 55.344 0.5 C 55.161 0.466 54.975 0.45 54.788 0.45 C 54.046 0.447 53.333 0.734 52.81 1.245 C 52.079 1.953 51.81 2.995 52.109 3.954 C 52.409 4.914 53.229 5.635 54.242 5.83 C 55.161 6.015 56.113 5.734 56.771 5.085 C 57.502 4.377 57.772 3.337 57.473 2.377 C 57.175 1.418 56.356 0.696 55.344 0.5 Z M 89.706 8.235 C 89.449 7.495 87.94 5.765 84.86 5.765 C 80.359 5.765 77.094 9.185 77.094 13.89 C 77.094 18.595 80.431 22.085 85.025 22.085 C 86.822 22.085 88.465 21.385 89.222 20.305 L 89.84 19.415 L 89.84 21.735 L 94.089 21.735 L 94.089 0 L 89.722 1.115 Z M 85.664 18.305 C 83.691 18.305 81.543 16.935 81.543 13.925 C 81.543 10.915 83.603 9.58 85.664 9.58 C 87.724 9.58 89.784 10.925 89.784 13.925 C 89.784 16.925 87.641 18.305 85.664 18.305 Z M 13.473 0.1 L 8.797 0.1 C 8.791 4.813 4.855 8.632 0 8.635 L 0 13.18 C 7.437 13.172 13.464 7.32 13.473 0.1 Z M 5.835 21.715 L 10.517 21.715 C 10.522 17.002 14.458 13.183 19.313 13.18 L 19.313 8.635 C 11.875 8.643 5.847 14.494 5.835 21.715 Z M 114.788 6.59 L 115.483 6.59 L 115.483 8.385 L 116.024 8.385 L 116.024 6.59 L 116.719 6.59 L 116.719 6.15 L 114.788 6.15 Z M 119.052 6.15 L 118.403 7.795 L 117.749 6.15 L 117.033 6.15 L 117.033 8.385 L 117.564 8.385 L 117.564 6.79 L 118.197 8.385 L 118.604 8.385 L 119.243 6.79 L 119.243 8.385 L 119.773 8.385 L 119.773 6.15 Z" fill="hsl(0, 0%, 100%)"></path></g></svg>