<svg xmlns="http://www.w3.org/2000/svg" xmlns:xlink="http://www.w3.org/1999/xlink" viewBox="0 0 71 16"><g id="ss2961677234_1"><path d="M 0 0 L 71 0 L 71 16 L 0 16 Z" fill="transparent"></path><path d="M 46.075 5.826 C 44.877 4.773 43.432 4.258 41.761 4.258 C 40.113 4.258 38.668 4.774 37.47 5.826 C 36.273 6.857 35.665 8.291 35.665 10.129 C 35.665 11.966 36.273 13.401 37.47 14.454 C 38.667 15.484 40.113 16 41.761 16 C 43.432 16 44.878 15.484 46.075 14.454 C 47.295 13.4 47.903 11.966 47.903 10.129 C 47.903 8.291 47.294 6.857 46.075 5.826 Z M 39.504 12.482 C 38.873 11.877 38.555 11.092 38.555 10.129 C 38.555 9.165 38.87 8.381 39.504 7.798 C 40.135 7.194 40.882 6.902 41.76 6.902 C 42.64 6.902 43.409 7.194 44.04 7.798 C 44.694 8.381 45.012 9.165 45.012 10.129 C 45.012 11.093 44.697 11.877 44.04 12.481 C 43.41 13.064 42.641 13.355 41.76 13.355 C 40.882 13.355 40.137 13.064 39.504 12.482 Z M 52.173 15.686 L 52.173 0.309 L 49.328 0.309 L 49.328 15.685 L 52.173 15.685 Z M 61.357 4.571 L 61.357 10.706 C 61.357 12.185 60.552 13.165 59.019 13.165 C 57.46 13.165 56.677 12.186 56.677 10.706 L 56.677 4.57 L 53.826 4.57 L 53.826 11.178 C 53.826 13.736 55.452 15.999 59.018 15.999 L 59.041 15.999 C 62.585 15.999 64.208 13.686 64.208 11.178 L 64.208 4.571 Z M 32.636 4.571 L 29.791 12.1 L 26.946 4.571 L 23.92 4.571 L 28.46 15.686 L 31.125 15.686 L 35.664 4.571 L 32.636 4.571 Z M 23.934 9.814 C 23.934 8.202 23.415 6.879 22.399 5.826 C 21.382 4.773 20.074 4.258 18.471 4.258 C 16.822 4.258 15.422 4.818 14.27 5.916 C 13.14 7.014 12.577 8.403 12.577 10.129 C 12.577 11.854 13.141 13.266 14.248 14.364 C 15.378 15.462 16.732 16 18.335 16 C 20.798 16 22.536 14.924 23.595 12.75 L 21.473 11.541 C 20.774 12.907 19.758 13.579 18.38 13.579 C 16.687 13.579 15.49 12.504 15.31 10.801 L 23.934 10.801 L 23.934 9.814 Z M 18.378 6.409 C 19.981 6.409 21.044 7.305 21.314 8.739 L 15.307 8.739 C 15.738 7.418 16.91 6.409 18.378 6.409 Z M 12.577 15.686 L 8.759 9.054 C 11.175 8.179 12.371 6.656 12.371 4.438 C 12.374 1.726 10.205 0 6.75 0 L 0 0 L 0 15.686 L 2.98 15.686 L 2.98 9.322 L 5.51 9.322 L 9.168 15.686 Z M 6.75 2.6 C 8.512 2.6 9.392 3.294 9.392 4.661 C 9.392 6.028 8.511 6.722 6.75 6.722 L 2.98 6.722 L 2.98 2.599 L 6.751 2.599 Z M 69.032 15.998 C 67.2 15.998 65.715 14.524 65.715 12.705 L 65.715 1.568 L 68.561 1.568 L 68.561 4.575 L 71 4.575 L 71 6.861 L 68.56 6.861 L 68.56 12.523 C 68.558 12.778 68.66 13.023 68.843 13.204 C 69.026 13.385 69.274 13.488 69.534 13.489 L 71 13.489 L 71 15.998 Z" fill="hsl(0, 0%, 100%)"></path></g></svg>