<svg xmlns="http://www.w3.org/2000/svg" xmlns:xlink="http://www.w3.org/1999/xlink" viewBox="0 0 84 22"><path d="M 73.281 5.14 L 71.488 16.457 C 71.474 16.542 71.498 16.628 71.554 16.693 C 71.609 16.758 71.691 16.794 71.775 16.792 L 73.897 16.792 C 74.051 16.793 74.183 16.681 74.208 16.527 L 76.001 5.21 C 76.023 5.081 75.954 4.953 75.835 4.901 C 75.797 4.883 75.756 4.874 75.714 4.875 L 73.593 4.875 C 73.438 4.872 73.305 4.985 73.281 5.14 Z M 71.016 8.442 L 69.002 8.442 C 68.849 8.441 68.717 8.552 68.691 8.706 L 68.625 9.123 C 68.625 9.123 67.061 7.419 64.293 8.571 C 62.707 9.231 61.943 10.591 61.619 11.589 C 61.619 11.589 60.59 14.621 62.918 16.289 C 62.918 16.289 65.077 17.894 67.508 16.191 L 67.467 16.457 C 67.446 16.586 67.514 16.712 67.631 16.765 C 67.669 16.783 67.711 16.792 67.753 16.792 L 69.767 16.792 C 69.922 16.795 70.055 16.682 70.079 16.527 L 71.304 8.777 C 71.317 8.693 71.293 8.607 71.237 8.543 C 71.182 8.478 71.101 8.441 71.016 8.442 Z M 68.053 12.725 C 67.974 13.267 67.702 13.762 67.287 14.115 C 66.87 14.471 66.34 14.662 65.794 14.655 C 65.579 14.658 65.366 14.627 65.161 14.563 C 64.291 14.284 63.795 13.452 63.937 12.549 C 64.018 12.008 64.29 11.514 64.705 11.16 C 65.122 10.805 65.652 10.612 66.198 10.619 C 66.413 10.617 66.627 10.648 66.831 10.713 C 67.706 10.988 68.2 11.823 68.056 12.725 Z M 57.306 12.939 C 58.397 12.939 59.452 12.549 60.282 11.841 C 61.109 11.137 61.658 10.155 61.827 9.076 C 62.18 6.835 60.423 4.878 57.934 4.878 L 53.926 4.878 C 53.772 4.877 53.64 4.989 53.615 5.143 L 51.821 16.46 C 51.801 16.589 51.869 16.715 51.987 16.768 C 52.025 16.786 52.066 16.795 52.108 16.795 L 54.231 16.795 C 54.385 16.796 54.517 16.684 54.542 16.53 L 55.069 13.207 C 55.091 13.052 55.225 12.938 55.38 12.942 Z M 59.081 8.975 C 58.95 9.803 58.307 10.413 57.079 10.413 L 55.507 10.413 L 55.984 7.399 L 57.528 7.399 C 58.798 7.401 59.212 8.149 59.081 8.977 Z" fill="hsl(0, 0%, 100%)"></path><path d="M 49.402 8.633 L 46.975 12.721 L 45.742 8.664 C 45.702 8.53 45.579 8.44 45.441 8.442 L 43.251 8.442 C 43.134 8.441 43.034 8.526 43.015 8.642 C 43.01 8.679 43.013 8.717 43.026 8.753 L 45.235 15.588 L 43.237 18.809 C 43.203 18.863 43.192 18.928 43.207 18.99 C 43.223 19.052 43.263 19.105 43.318 19.136 C 43.354 19.157 43.396 19.167 43.437 19.167 L 45.798 19.167 C 45.934 19.168 46.062 19.096 46.134 18.979 L 52.301 8.802 C 52.335 8.748 52.346 8.683 52.33 8.621 C 52.314 8.559 52.274 8.507 52.218 8.476 C 52.182 8.455 52.141 8.445 52.1 8.445 L 49.74 8.445 C 49.603 8.444 49.475 8.515 49.402 8.633 Z M 42.008 8.442 L 39.993 8.442 C 39.839 8.441 39.707 8.553 39.682 8.707 L 39.617 9.123 C 39.617 9.123 38.052 7.419 35.284 8.571 C 33.696 9.23 32.934 10.591 32.611 11.589 C 32.611 11.589 31.58 14.621 33.908 16.289 C 33.908 16.289 36.068 17.894 38.499 16.191 L 38.457 16.457 C 38.437 16.586 38.505 16.712 38.622 16.765 C 38.66 16.783 38.702 16.792 38.744 16.791 L 40.758 16.791 C 40.911 16.792 41.043 16.68 41.069 16.527 L 42.295 8.777 C 42.315 8.648 42.247 8.521 42.129 8.469 C 42.091 8.451 42.05 8.442 42.008 8.442 Z M 39.047 12.726 C 38.967 13.267 38.694 13.759 38.279 14.114 C 37.862 14.47 37.332 14.662 36.786 14.655 C 36.571 14.658 36.358 14.627 36.153 14.563 C 35.285 14.284 34.789 13.452 34.933 12.548 C 35.011 12.007 35.285 11.511 35.702 11.158 C 36.121 10.802 36.653 10.611 37.201 10.619 C 37.415 10.617 37.629 10.648 37.833 10.713 C 38.699 10.988 39.192 11.822 39.049 12.725 L 39.047 12.725 Z M 28.299 12.939 C 29.388 12.939 30.442 12.549 31.272 11.839 C 32.098 11.135 32.645 10.154 32.814 9.076 C 33.167 6.835 31.412 4.878 28.924 4.878 L 24.914 4.878 C 24.76 4.877 24.629 4.989 24.603 5.142 L 22.815 16.456 C 22.794 16.585 22.862 16.713 22.981 16.765 C 23.019 16.782 23.06 16.791 23.102 16.791 L 25.223 16.791 C 25.377 16.792 25.509 16.681 25.535 16.527 L 26.061 13.203 C 26.084 13.048 26.217 12.935 26.372 12.939 Z M 30.074 8.974 C 29.942 9.803 29.3 10.413 28.072 10.413 L 26.5 10.413 L 26.976 7.399 L 28.52 7.399 C 29.791 7.401 30.204 8.149 30.074 8.976 Z" fill="hsl(0, 0%, 100%)"></path><path d="M 14.584 5.46 C 14.632 2.961 12.579 1.043 9.759 1.043 L 3.925 1.043 C 3.645 1.044 3.407 1.248 3.361 1.527 L 1.024 16.207 C 0.99 16.413 1.098 16.617 1.287 16.703 C 1.348 16.731 1.414 16.745 1.481 16.745 L 4.937 16.745 L 4.398 20.145 C 4.365 20.351 4.473 20.554 4.661 20.64 C 4.722 20.668 4.788 20.683 4.855 20.683 L 7.671 20.683 C 7.804 20.683 7.932 20.635 8.032 20.547 C 8.136 20.457 8.151 20.334 8.173 20.199 L 8.999 15.313 C 9.02 15.178 9.089 15.003 9.192 14.915 C 9.28 14.827 9.398 14.777 9.522 14.777 L 11.245 14.777 C 14.007 14.777 16.351 12.803 16.779 10.059 C 17.083 8.111 16.251 6.34 14.584 5.46 Z" fill="rgba(255, 255, 255, 0.53)"></path><path d="M 5.686 11.331 L 4.825 16.816 L 4.284 20.258 C 4.251 20.464 4.36 20.667 4.548 20.753 C 4.609 20.782 4.675 20.796 4.742 20.795 L 7.723 20.795 C 8.002 20.795 8.24 20.591 8.286 20.312 L 9.071 15.311 C 9.114 15.031 9.354 14.825 9.634 14.827 L 11.389 14.827 C 14.144 14.83 16.492 12.807 16.923 10.058 C 17.227 8.11 16.251 6.338 14.584 5.459 C 14.579 5.667 14.561 5.873 14.529 6.078 C 14.097 8.827 11.749 10.85 8.994 10.847 L 6.249 10.847 C 5.97 10.848 5.732 11.052 5.686 11.331 Z" fill="hsl(0, 0%, 100%)"></path><path d="M 4.824 16.817 L 1.356 16.817 C 1.15 16.817 0.968 16.678 0.911 16.478 C 0.893 16.413 0.889 16.345 0.9 16.279 L 3.236 1.382 C 3.279 1.102 3.519 0.896 3.8 0.898 L 9.759 0.898 C 12.579 0.898 14.631 2.962 14.583 5.459 C 13.831 5.07 12.997 4.87 12.152 4.878 L 7.187 4.878 C 6.907 4.878 6.668 5.083 6.623 5.362 L 5.687 11.332 Z" fill="hsl(0, 0%, 100%)"></path></svg>