<svg xmlns="http://www.w3.org/2000/svg" xmlns:xlink="http://www.w3.org/1999/xlink" viewBox="0 0 70 14"><g id="ss499008863_1"><path d="M 0 0 L 70 0 L 70 14 L 0 14 Z" fill="transparent" opacity="0.3"></path><path d="M 11.471 0.28 C 11.942 1.081 12.154 1.907 12.154 2.948 C 12.154 6.271 9.398 10.589 7.16 13.621 L 2.05 13.621 L 0 1.008 L 4.475 0.571 L 5.559 9.545 C 6.571 7.848 7.82 5.18 7.82 3.361 C 7.82 2.366 7.655 1.688 7.396 1.129 L 11.471 0.281 Z M 17.271 5.835 C 18.095 5.835 20.168 5.447 20.168 4.235 C 20.168 3.653 19.767 3.362 19.296 3.362 C 18.471 3.362 17.389 4.38 17.271 5.835 Z M 17.177 8.237 C 17.177 9.717 17.977 10.298 19.037 10.298 C 20.192 10.298 21.298 10.007 22.735 9.256 L 22.194 13.039 C 21.181 13.548 19.603 13.888 18.071 13.888 C 14.185 13.888 12.794 11.463 12.794 8.431 C 12.794 4.502 15.057 0.329 19.72 0.329 C 22.288 0.329 23.724 1.809 23.724 3.871 C 23.724 7.195 19.58 8.213 17.177 8.237 Z M 36.639 3.192 C 36.639 3.677 36.567 4.381 36.496 4.84 L 35.153 13.572 L 30.796 13.572 L 32.021 5.568 C 32.044 5.351 32.116 4.913 32.116 4.671 C 32.116 4.089 31.762 3.943 31.337 3.943 C 30.773 3.943 30.207 4.21 29.83 4.405 L 28.44 13.572 L 24.058 13.572 L 26.06 0.499 L 29.853 0.499 L 29.901 1.543 C 30.795 0.936 31.974 0.28 33.645 0.28 C 35.86 0.28 36.639 1.444 36.639 3.191 Z M 49.574 1.76 C 50.823 0.84 52.001 0.329 53.626 0.329 C 55.863 0.329 56.642 1.494 56.642 3.241 C 56.642 3.726 56.57 4.429 56.499 4.889 L 55.158 13.621 L 50.799 13.621 L 52.047 5.448 C 52.07 5.229 52.119 4.963 52.119 4.793 C 52.119 4.138 51.765 3.993 51.341 3.993 C 50.799 3.993 50.258 4.235 49.856 4.454 L 48.467 13.621 L 44.11 13.621 L 45.358 5.448 C 45.381 5.229 45.428 4.963 45.428 4.794 C 45.428 4.138 45.074 3.993 44.651 3.993 C 44.085 3.993 43.52 4.259 43.144 4.454 L 41.753 13.621 L 37.373 13.621 L 39.375 0.548 L 43.121 0.548 L 43.238 1.64 C 44.11 0.985 45.287 0.33 46.865 0.33 C 48.231 0.33 49.126 0.936 49.574 1.761 Z M 65.312 5.568 C 65.312 4.501 65.052 3.773 64.276 3.773 C 62.556 3.773 62.203 6.902 62.203 8.503 C 62.203 9.716 62.534 10.468 63.31 10.468 C 64.935 10.468 65.312 7.168 65.312 5.568 Z M 57.775 8.309 C 57.775 4.187 59.894 0.329 64.771 0.329 C 68.446 0.329 69.789 2.561 69.789 5.641 C 69.789 9.717 67.692 13.936 62.698 13.936 C 59 13.936 57.775 11.438 57.775 8.309 Z" fill="hsl(0, 0%, 100%)"></path></g></svg>