<svg xmlns="http://www.w3.org/2000/svg" xmlns:xlink="http://www.w3.org/1999/xlink" viewBox="0 0 50 17"><g id="ss1911285585_1"><path d="M 0 0 L 50 0 L 50 17 L 0 17 Z" fill="transparent" opacity="0.3"></path><path d="M 35.879 4.174 C 37.011 4.174 37.93 3.267 37.93 2.147 C 37.93 1.028 37.011 0.119 35.879 0.119 C 34.748 0.119 33.831 1.028 33.831 2.147 C 33.831 3.267 34.748 4.174 35.879 4.174 Z M 20.178 5.27 C 20.085 5.5 19.419 7.361 17.809 9.291 L 17.809 1.041 L 13.519 1.88 L 13.519 16.83 L 17.809 16.83 L 17.809 12.209 C 19.052 14.054 19.665 16.83 19.665 16.83 L 24.805 16.83 C 24.297 14.739 22.073 10.883 22.073 10.883 C 24.068 8.379 24.945 5.712 25.084 5.27 L 20.177 5.27 Z M 31.458 5.114 C 27.615 5.236 25.664 6.942 25.664 10.333 L 25.664 16.83 L 29.857 16.83 L 29.857 11.532 C 29.857 9.5 30.125 8.63 32.561 8.548 L 32.561 5.173 C 32.151 5.086 31.458 5.114 31.458 5.114 Z M 6.322 6.916 C 5.797 6.882 4.581 6.803 4.581 5.72 C 4.581 4.411 6.332 4.411 6.989 4.411 C 8.144 4.411 9.641 4.75 10.709 5.066 C 10.709 5.066 11.305 5.273 11.813 5.487 L 11.859 5.499 L 11.859 1.918 L 11.795 1.898 C 10.534 1.462 9.067 1.042 6.349 1.042 C 1.661 1.042 0 3.743 0 6.058 C 0 7.392 0.578 10.532 5.946 10.894 C 6.401 10.922 7.608 10.991 7.608 12.112 C 7.608 13.036 6.62 13.582 4.957 13.582 C 3.135 13.582 1.367 13.121 0.293 12.685 L 0.293 16.374 C 1.901 16.792 3.713 17 5.836 17 C 10.419 17 12.472 14.444 12.472 11.91 C 12.472 9.037 10.175 7.171 6.321 6.916 Z M 33.801 16.83 L 37.959 16.83 L 37.959 5.283 L 33.801 5.283 Z M 45.791 1.778 L 45.791 16.83 L 49.95 16.83 L 49.95 1.042 Z M 39.721 1.778 L 43.876 1.042 L 43.876 16.83 L 39.721 16.83 Z" fill="hsl(0, 0%, 100%)"></path></g></svg>