<svg xmlns="http://www.w3.org/2000/svg" xmlns:xlink="http://www.w3.org/1999/xlink" viewBox="0 0 85 17"><g id="ss3488866500_1"><path d="M 0 0 L 85 0 L 85 17 L 0 17 Z" fill="transparent" opacity="0.3"></path><path d="M 11.179 9.683 L 9.509 9.683 C 9.356 9.676 9.231 9.552 9.214 9.391 L 9.214 0.522 C 9.219 0.344 9.362 0.204 9.533 0.205 L 11.09 0.205 C 11.248 0.213 11.375 0.345 11.385 0.511 L 11.385 1.668 L 11.417 1.668 C 11.821 0.548 12.586 0.026 13.615 0.026 C 14.644 0.026 15.313 0.548 15.782 1.668 C 16.101 0.801 16.839 0.18 17.714 0.044 C 18.59 -0.098 19.473 0.262 20.029 0.989 C 20.559 1.735 20.451 2.824 20.451 3.769 L 20.451 9.364 C 20.449 9.451 20.414 9.534 20.354 9.593 C 20.293 9.653 20.212 9.686 20.128 9.684 L 18.459 9.684 C 18.297 9.676 18.168 9.537 18.164 9.366 L 18.164 4.664 C 18.164 4.291 18.194 3.358 18.116 3.003 C 17.992 2.407 17.617 2.238 17.134 2.238 C 16.694 2.251 16.303 2.536 16.137 2.965 C 15.965 3.414 15.98 4.159 15.98 4.664 L 15.98 9.363 C 15.979 9.449 15.944 9.532 15.884 9.592 C 15.823 9.652 15.742 9.684 15.659 9.683 L 13.986 9.683 C 13.824 9.674 13.696 9.536 13.691 9.365 L 13.691 4.664 C 13.691 3.673 13.839 2.217 12.656 2.217 C 11.474 2.217 11.503 3.634 11.503 4.664 L 11.503 9.363 C 11.501 9.45 11.466 9.532 11.406 9.592 C 11.345 9.652 11.265 9.684 11.181 9.683 M 29.785 8.142 C 29.48 7.705 29.154 7.351 29.154 6.542 L 29.154 3.85 C 29.154 2.71 29.232 1.662 28.415 0.876 C 27.775 0.24 26.714 0.016 25.902 0.016 C 24.313 0.016 22.539 0.628 22.167 2.661 C 22.151 2.743 22.169 2.829 22.216 2.897 C 22.263 2.966 22.335 3.012 22.416 3.023 L 24.035 3.203 C 24.19 3.179 24.311 3.049 24.33 2.886 C 24.471 2.186 25.036 1.849 25.673 1.849 C 26.017 1.849 26.412 1.98 26.61 2.298 C 26.845 2.653 26.814 3.139 26.814 3.551 L 26.814 3.77 C 25.846 3.88 24.579 3.956 23.674 4.368 C 22.628 4.835 21.893 5.788 21.893 7.192 C 21.893 8.986 22.987 9.883 24.393 9.883 C 25.575 9.883 26.229 9.595 27.145 8.628 C 27.45 9.086 27.549 9.302 28.103 9.779 C 28.23 9.853 28.387 9.837 28.498 9.74 C 28.92 9.352 29.347 8.969 29.778 8.592 C 29.921 8.487 29.898 8.3 29.785 8.142 Z M 26.504 7.365 C 26.239 7.851 25.816 8.15 25.348 8.15 C 24.708 8.15 24.334 7.646 24.334 6.898 C 24.334 5.425 25.61 5.159 26.817 5.159 L 26.817 5.532 C 26.817 6.207 26.829 6.767 26.504 7.365 Z M 31.199 1.759 L 31.199 0.492 C 31.195 0.405 31.226 0.32 31.286 0.259 C 31.346 0.198 31.427 0.166 31.51 0.171 L 37 0.171 C 37.083 0.169 37.164 0.201 37.224 0.262 C 37.283 0.321 37.316 0.404 37.316 0.491 L 37.316 1.579 C 37.316 1.761 37.168 1.999 36.903 2.375 L 34.059 6.575 C 35.115 6.549 36.23 6.712 37.19 7.27 C 37.366 7.366 37.479 7.555 37.486 7.764 L 37.486 9.122 C 37.486 9.309 37.289 9.524 37.08 9.413 C 35.256 8.445 33.103 8.449 31.281 9.423 C 31.091 9.529 30.891 9.316 30.891 9.13 L 30.891 7.838 C 30.873 7.533 30.944 7.229 31.095 6.968 L 34.39 2.074 L 31.517 2.074 C 31.433 2.077 31.352 2.045 31.292 1.985 C 31.232 1.925 31.198 1.841 31.199 1.754 M 42.055 1.823 C 40.824 1.823 40.745 3.557 40.745 4.64 C 40.745 5.722 40.731 8.034 42.038 8.034 C 43.347 8.034 43.396 6.169 43.396 5.031 C 43.396 4.285 43.365 3.389 43.146 2.681 C 42.958 2.069 42.584 1.823 42.055 1.823 Z M 42.039 0.012 C 44.518 0.012 45.859 2.214 45.859 5.013 C 45.859 7.718 44.381 9.864 42.038 9.864 C 39.607 9.864 38.282 7.661 38.282 4.919 C 38.282 2.177 39.623 0.013 42.038 0.013 Z M 49.09 9.665 L 47.425 9.665 C 47.263 9.657 47.134 9.518 47.13 9.347 L 47.13 0.477 C 47.149 0.307 47.288 0.181 47.451 0.186 L 49 0.186 C 49.141 0.191 49.262 0.293 49.295 0.435 L 49.295 1.791 L 49.328 1.791 C 49.795 0.579 50.45 0 51.603 0 C 52.351 0 53.081 0.28 53.553 1.044 C 53.989 1.754 53.989 2.948 53.989 3.807 L 53.989 9.387 C 53.963 9.551 53.826 9.67 53.668 9.665 L 51.989 9.665 C 51.84 9.659 51.715 9.542 51.693 9.386 L 51.693 4.571 C 51.693 3.601 51.803 2.182 50.648 2.182 C 50.222 2.2 49.845 2.477 49.681 2.891 C 49.448 3.433 49.417 3.974 49.417 4.574 L 49.417 9.347 C 49.409 9.529 49.264 9.67 49.091 9.665 M 62.678 1.534 C 61.831 1.54 61.009 1.832 60.332 2.367 L 60.332 7.414 C 61.079 7.995 61.849 8.285 62.643 8.284 C 64.253 8.284 65.058 7.162 65.058 4.92 C 65.058 2.677 64.265 1.548 62.678 1.532 Z M 60.21 1.299 C 60.63 0.915 61.11 0.609 61.627 0.393 C 62.118 0.191 62.64 0.087 63.168 0.087 C 63.692 0.077 64.211 0.185 64.692 0.405 C 65.142 0.618 65.538 0.941 65.846 1.347 C 66.179 1.794 66.426 2.306 66.573 2.852 C 66.751 3.498 66.837 4.168 66.828 4.841 C 66.836 5.527 66.744 6.211 66.556 6.868 C 66.397 7.428 66.139 7.95 65.794 8.408 C 65.472 8.826 65.065 9.164 64.603 9.396 C 64.115 9.63 63.583 9.745 63.046 9.734 C 62.046 9.752 61.076 9.369 60.334 8.663 L 60.334 12.908 C 60.348 13.009 60.316 13.11 60.247 13.181 C 60.177 13.253 60.08 13.286 59.983 13.271 L 58.949 13.271 C 58.852 13.286 58.755 13.252 58.686 13.181 C 58.617 13.11 58.584 13.009 58.598 12.908 L 58.598 0.719 C 58.585 0.619 58.618 0.518 58.687 0.447 C 58.756 0.376 58.853 0.342 58.949 0.356 L 59.718 0.356 C 59.819 0.347 59.919 0.38 59.995 0.449 C 60.071 0.517 60.117 0.615 60.122 0.719 Z M 71.195 8.422 C 71.607 8.416 72.015 8.337 72.402 8.188 C 72.835 8.023 73.242 7.791 73.61 7.5 L 73.61 5.65 C 73.307 5.576 73 5.519 72.69 5.478 C 72.38 5.436 72.068 5.415 71.755 5.414 C 70.434 5.414 69.774 5.94 69.775 6.991 C 69.775 7.45 69.898 7.803 70.143 8.051 C 70.389 8.299 70.739 8.422 71.195 8.421 Z M 69.146 1.935 L 69.014 1.981 C 68.967 1.998 68.917 2.007 68.867 2.008 C 68.719 2.008 68.639 1.9 68.639 1.681 L 68.639 1.196 C 68.627 1.073 68.652 0.95 68.71 0.843 C 68.786 0.755 68.882 0.689 68.989 0.652 C 69.434 0.465 69.898 0.331 70.371 0.253 C 70.914 0.151 71.465 0.1 72.017 0.1 C 73.125 0.1 73.942 0.335 74.468 0.805 C 74.992 1.274 75.256 2.005 75.257 2.996 L 75.257 9.183 C 75.27 9.283 75.238 9.384 75.169 9.455 C 75.1 9.526 75.003 9.56 74.907 9.546 L 74.152 9.546 C 74.057 9.556 73.962 9.525 73.889 9.459 C 73.816 9.395 73.773 9.301 73.768 9.201 L 73.68 8.603 C 73.266 8.974 72.796 9.267 72.289 9.472 C 71.806 9.672 71.292 9.776 70.773 9.778 C 69.933 9.778 69.269 9.534 68.778 9.044 C 68.287 8.555 68.04 7.9 68.039 7.079 C 68.039 6.198 68.342 5.495 68.949 4.968 C 69.556 4.443 70.373 4.18 71.4 4.181 C 72.144 4.193 72.884 4.296 73.606 4.487 L 73.606 3.297 C 73.606 2.644 73.466 2.186 73.186 1.92 C 72.906 1.655 72.416 1.522 71.715 1.521 C 70.844 1.529 69.978 1.669 69.146 1.934 Z M 80.954 11.15 C 80.638 11.982 80.272 12.58 79.859 12.943 C 79.445 13.306 78.902 13.487 78.232 13.486 C 77.896 13.491 77.56 13.448 77.235 13.359 C 77.126 13.335 77.027 13.274 76.954 13.186 C 76.888 13.076 76.857 12.946 76.867 12.817 L 76.867 12.345 C 76.867 12.116 76.954 12.001 77.129 12.001 C 77.218 12.006 77.306 12.017 77.393 12.037 C 77.549 12.064 77.706 12.077 77.864 12.074 C 78.235 12.098 78.602 11.982 78.899 11.747 C 79.145 11.53 79.366 11.131 79.564 10.551 L 79.897 9.635 L 76.524 1.007 C 76.46 0.87 76.419 0.723 76.402 0.571 C 76.402 0.428 76.484 0.355 76.646 0.355 L 77.698 0.355 C 77.832 0.341 77.967 0.373 78.083 0.445 C 78.182 0.559 78.253 0.696 78.291 0.844 L 80.744 7.871 L 83.11 0.844 C 83.148 0.696 83.219 0.559 83.318 0.445 C 83.434 0.373 83.569 0.341 83.703 0.355 L 84.684 0.355 C 84.848 0.355 84.929 0.428 84.929 0.571 C 84.911 0.723 84.87 0.87 84.806 1.007 Z M 6.605 9.751 C 6.494 9.849 6.337 9.866 6.21 9.792 C 5.656 9.315 5.555 9.094 5.254 8.64 C 4.336 9.607 3.687 9.896 2.5 9.896 C 1.093 9.896 0 8.998 0 7.203 C 0 5.801 0.739 4.848 1.774 4.379 C 2.68 3.968 3.946 3.894 4.914 3.781 L 4.914 3.557 C 4.914 3.146 4.945 2.659 4.712 2.303 C 4.508 1.985 4.12 1.855 3.774 1.855 C 3.137 1.855 2.569 2.193 2.431 2.892 C 2.412 3.056 2.29 3.187 2.135 3.21 L 0.529 3.028 C 0.449 3.016 0.377 2.971 0.33 2.903 C 0.283 2.835 0.265 2.749 0.281 2.667 C 0.652 0.636 2.426 0.023 4.015 0.023 C 4.828 0.023 5.89 0.246 6.528 0.883 C 7.34 1.668 7.267 2.718 7.267 3.857 L 7.267 6.547 C 7.267 7.357 7.592 7.712 7.898 8.148 C 8.005 8.301 8.029 8.492 7.898 8.606 C 7.467 8.983 7.04 9.365 6.618 9.754 Z M 4.921 5.167 C 3.713 5.167 2.438 5.436 2.438 6.906 C 2.438 7.656 2.811 8.16 3.452 8.16 C 3.922 8.16 4.343 7.861 4.609 7.374 C 4.936 6.773 4.921 6.212 4.921 5.539 Z" fill="hsl(0, 0%, 100%)"></path><path d="M 33.463 13.16 C 30.328 15.554 25.777 16.831 21.868 16.831 C 16.639 16.858 11.589 14.865 7.706 11.241 C 7.411 10.968 7.674 10.593 8.027 10.805 C 12.059 13.233 17.044 14.694 22.198 14.694 C 25.908 14.674 29.58 13.895 33.008 12.4 C 33.537 12.168 33.982 12.761 33.463 13.165 M 34.767 11.625 C 35.17 12.156 34.324 14.345 33.944 15.323 C 33.829 15.619 34.075 15.737 34.334 15.514 C 36.015 14.058 36.449 11.009 36.108 10.569 C 35.767 10.128 32.826 9.755 31.031 11.06 C 30.755 11.259 30.802 11.536 31.11 11.498 C 32.119 11.372 34.37 11.093 34.77 11.625" fill="hsl(0, 0%, 100%)"></path></g></svg>