<svg xmlns="http://www.w3.org/2000/svg" xmlns:xlink="http://www.w3.org/1999/xlink" viewBox="0 0 92 20"><g transform="translate(-0 -0)" id="ss917529345_1"><path d="M 0 0 L 92 0 L 92 20 L 0 20 Z" fill="transparent" opacity="0.3"></path><path d="M 36.601 7.739 C 36.506 7.786 36.412 7.786 36.317 7.786 C 36.223 7.786 36.127 7.693 36.081 7.646 C 35.787 7.264 35.417 6.946 34.992 6.713 C 34.565 6.48 34.092 6.387 33.571 6.387 C 31.677 6.387 30.493 7.878 30.493 9.977 C 30.493 12.075 31.677 13.613 33.571 13.613 C 34.044 13.613 34.565 13.52 34.991 13.287 C 35.417 13.053 35.796 12.728 36.08 12.308 C 36.125 12.22 36.217 12.166 36.316 12.168 C 36.412 12.168 36.506 12.168 36.601 12.214 L 37.501 12.728 C 37.548 12.774 37.595 12.774 37.643 12.821 C 37.69 12.868 37.69 12.913 37.738 12.961 L 37.738 13.1 C 37.738 13.147 37.69 13.193 37.69 13.24 C 37.264 13.893 36.648 14.406 35.938 14.778 C 35.228 15.152 34.423 15.292 33.665 15.292 C 30.635 15.292 28.552 13.1 28.552 9.977 C 28.552 6.853 30.635 4.708 33.618 4.708 C 34.376 4.708 35.181 4.848 35.891 5.175 C 36.606 5.499 37.213 6.016 37.643 6.667 C 37.69 6.713 37.69 6.76 37.69 6.807 L 37.69 6.947 C 37.69 6.993 37.643 7.04 37.643 7.087 C 37.596 7.133 37.596 7.179 37.548 7.179 Z M 43.277 14.778 L 43.277 14.358 C 42.804 14.965 42.141 15.338 41.052 15.338 C 39.489 15.338 38.4 14.498 38.4 13.007 C 38.4 11.142 40.058 10.815 41.1 10.676 C 42.188 10.536 43.135 10.443 43.135 9.743 C 43.135 9.091 42.377 8.951 41.762 8.951 C 41.052 8.951 40.342 9.138 39.679 9.463 C 39.632 9.51 39.584 9.51 39.536 9.51 L 39.395 9.51 C 39.347 9.51 39.3 9.463 39.253 9.417 C 39.206 9.37 39.206 9.323 39.158 9.278 L 38.826 8.624 L 38.826 8.298 C 38.873 8.205 38.92 8.112 39.015 8.065 C 39.921 7.599 40.929 7.359 41.95 7.365 C 43.75 7.365 45.029 8.112 45.029 9.883 L 45.029 14.778 C 45.029 14.872 44.981 14.965 44.934 15.058 C 44.839 15.151 44.744 15.151 44.65 15.151 L 43.655 15.151 C 43.608 15.151 43.561 15.151 43.513 15.105 C 43.466 15.105 43.419 15.058 43.371 15.012 C 43.324 14.965 43.324 14.918 43.276 14.872 L 43.276 14.778 Z M 43.135 11.375 C 42.804 11.655 42.141 11.702 41.478 11.842 C 40.815 11.981 40.2 12.121 40.2 12.867 C 40.2 13.52 40.672 13.846 41.43 13.846 C 42.33 13.846 43.135 13.379 43.135 12.214 Z M 46.639 13.193 C 46.684 13.106 46.776 13.052 46.875 13.053 C 46.971 13.053 47.065 13.053 47.16 13.147 C 47.776 13.613 48.58 13.847 49.385 13.847 C 50.191 13.847 50.806 13.566 50.806 12.96 C 50.806 12.401 50.238 12.261 48.912 12.028 C 47.491 11.794 46.118 11.328 46.118 9.743 C 46.118 8.065 47.587 7.366 49.244 7.366 C 50.285 7.366 51.327 7.692 52.132 8.298 L 52.226 8.392 C 52.274 8.438 52.274 8.484 52.274 8.532 L 52.274 8.671 C 52.274 8.718 52.226 8.764 52.179 8.811 L 51.706 9.37 C 51.66 9.457 51.569 9.512 51.469 9.51 C 51.374 9.51 51.279 9.51 51.185 9.417 C 50.595 8.988 49.881 8.759 49.148 8.764 C 48.439 8.764 47.823 8.951 47.823 9.51 C 47.823 10.117 48.676 10.21 49.528 10.396 C 51.374 10.723 52.511 11.235 52.511 12.727 C 52.511 14.312 51.232 15.291 49.196 15.291 C 48.086 15.333 46.995 14.986 46.118 14.312 L 46.024 14.219 C 45.976 14.173 45.976 14.126 45.976 14.079 L 45.976 13.939 C 45.976 13.893 46.024 13.846 46.071 13.799 Z M 53.742 14.778 L 53.742 5.268 C 53.742 5.175 53.789 5.082 53.836 4.988 C 53.931 4.895 54.026 4.895 54.12 4.895 L 55.209 4.895 C 55.304 4.895 55.399 4.942 55.494 4.988 C 55.541 5.082 55.588 5.175 55.588 5.268 L 55.588 8.532 C 55.873 8.158 56.204 7.878 56.63 7.693 C 57.046 7.506 57.498 7.411 57.955 7.413 C 59.565 7.413 60.512 8.532 60.512 10.163 L 60.512 14.779 C 60.512 14.872 60.465 14.965 60.418 15.058 C 60.323 15.152 60.229 15.152 60.134 15.152 L 59.045 15.152 C 58.95 15.152 58.856 15.105 58.761 15.058 C 58.666 14.965 58.666 14.872 58.666 14.778 L 58.666 10.583 C 58.666 9.792 58.382 9.045 57.34 9.045 C 56.346 9.045 55.588 9.745 55.588 10.863 L 55.588 14.78 C 55.588 14.873 55.541 14.966 55.494 15.059 C 55.399 15.153 55.304 15.153 55.209 15.153 L 54.12 15.153 C 54.073 15.153 54.026 15.153 53.979 15.106 C 53.931 15.106 53.883 15.059 53.836 15.013 C 53.789 14.966 53.789 14.919 53.742 14.873 L 53.742 14.779 Z M 72.539 14.873 L 71.735 12.588 L 67.757 12.588 L 66.952 14.873 C 66.917 14.943 66.868 15.006 66.81 15.058 C 66.762 15.105 66.668 15.105 66.573 15.105 L 65.342 15.105 C 65.295 15.105 65.2 15.105 65.153 15.058 C 65.106 15.012 65.058 15.012 65.011 14.919 C 64.964 14.873 64.964 14.826 64.964 14.733 L 64.964 14.546 L 68.561 5.035 C 68.608 4.988 68.656 4.896 68.703 4.849 C 68.75 4.803 68.846 4.803 68.939 4.803 L 70.691 4.803 C 70.787 4.803 70.834 4.849 70.929 4.849 C 70.987 4.902 71.035 4.965 71.07 5.035 L 74.622 14.546 C 74.622 14.593 74.669 14.686 74.622 14.733 C 74.622 14.779 74.575 14.873 74.575 14.919 L 74.432 15.058 C 74.385 15.105 74.338 15.105 74.243 15.105 L 72.87 15.105 C 72.775 15.105 72.728 15.058 72.634 15.012 C 72.585 15.012 72.538 14.966 72.538 14.873 Z M 69.793 6.528 L 68.278 11.003 L 71.261 11.003 L 69.793 6.528 Z M 77.322 7.925 L 77.322 8.532 C 77.606 8.159 77.938 7.879 78.364 7.693 C 78.78 7.507 79.232 7.412 79.689 7.413 C 81.773 7.413 83.146 9.138 83.146 11.376 C 83.146 13.613 81.773 15.338 79.689 15.338 C 79.232 15.34 78.78 15.245 78.364 15.058 C 77.938 14.873 77.606 14.546 77.321 14.173 L 77.321 17.25 C 77.321 17.343 77.274 17.437 77.227 17.529 C 77.132 17.623 77.038 17.623 76.943 17.623 L 75.854 17.623 C 75.759 17.623 75.665 17.576 75.57 17.529 C 75.475 17.437 75.475 17.343 75.475 17.25 L 75.475 7.925 C 75.475 7.833 75.523 7.739 75.57 7.646 C 75.617 7.553 75.759 7.553 75.854 7.553 L 76.942 7.553 C 76.991 7.553 77.038 7.553 77.085 7.599 C 77.132 7.599 77.18 7.646 77.227 7.693 C 77.274 7.739 77.274 7.786 77.321 7.833 C 77.321 7.833 77.369 7.879 77.321 7.926 Z M 79.311 13.707 C 80.589 13.707 81.205 12.634 81.205 11.329 C 81.205 10.023 80.589 8.952 79.311 8.952 C 78.032 8.952 77.321 9.977 77.321 11.329 C 77.321 12.634 78.032 13.707 79.311 13.707 Z M 86.176 7.925 L 86.176 8.532 C 86.46 8.159 86.791 7.879 87.218 7.693 C 87.634 7.507 88.087 7.411 88.544 7.413 C 90.627 7.413 92 9.138 92 11.376 C 92 13.613 90.627 15.338 88.544 15.338 C 88.086 15.34 87.634 15.245 87.218 15.058 C 86.791 14.873 86.46 14.546 86.176 14.173 L 86.176 17.25 C 86.176 17.343 86.129 17.437 86.082 17.529 C 86.034 17.623 85.892 17.623 85.797 17.623 L 84.708 17.623 C 84.614 17.623 84.518 17.576 84.424 17.529 C 84.329 17.437 84.329 17.343 84.329 17.25 L 84.329 7.925 C 84.329 7.833 84.377 7.739 84.424 7.646 C 84.471 7.553 84.614 7.553 84.708 7.553 L 85.797 7.553 C 85.844 7.553 85.892 7.553 85.939 7.599 C 85.986 7.599 86.034 7.646 86.082 7.693 C 86.129 7.739 86.129 7.786 86.176 7.833 L 86.176 7.926 Z M 88.165 13.707 C 89.443 13.707 90.059 12.634 90.059 11.329 C 90.059 10.023 89.443 8.952 88.165 8.952 C 86.886 8.952 86.176 9.977 86.176 11.329 C 86.176 12.634 86.839 13.707 88.165 13.707 Z" fill="hsl(0, 0%, 100%)"></path><path d="M 4.688 0 C 3.445 -0.007 2.25 0.477 1.37 1.343 C 0.49 2.21 -0.003 3.388 0 4.615 L 0 15.385 C -0.003 16.612 0.49 17.79 1.37 18.657 C 2.25 19.523 3.445 20.007 4.688 20 L 15.53 20 C 16.773 20.007 17.968 19.523 18.848 18.657 C 19.728 17.79 20.221 16.612 20.218 15.385 L 20.218 4.615 C 20.221 3.388 19.728 2.21 18.848 1.343 C 17.968 0.477 16.773 -0.007 15.53 0 Z M 13.4 7.459 C 12.642 6.807 11.648 6.48 10.653 6.48 C 9.801 6.48 8.997 6.76 8.997 7.506 C 8.997 8.206 9.754 8.485 10.653 8.811 C 10.748 8.858 10.843 8.858 10.938 8.904 C 12.737 9.511 14.252 10.257 14.252 11.982 C 14.252 13.893 12.737 15.152 10.323 15.338 L 10.085 16.363 C 10.044 16.561 9.863 16.7 9.659 16.69 L 8.145 16.69 C 8.019 16.694 7.898 16.642 7.813 16.55 C 7.719 16.457 7.719 16.317 7.719 16.223 L 7.955 15.152 C 7.034 14.908 6.188 14.443 5.493 13.799 C 5.398 13.707 5.351 13.613 5.351 13.52 C 5.351 13.427 5.398 13.287 5.493 13.24 L 6.345 12.401 C 6.488 12.261 6.772 12.261 6.914 12.401 C 7.671 13.147 8.76 13.52 9.803 13.52 C 10.891 13.52 11.649 13.053 11.649 12.308 C 11.649 11.655 11.033 11.422 9.85 11.003 C 9.707 10.956 9.614 10.909 9.47 10.863 C 7.956 10.35 6.535 9.558 6.535 7.833 C 6.535 5.781 8.24 4.802 10.323 4.708 L 10.56 3.683 C 10.56 3.357 10.749 3.263 10.939 3.263 L 12.454 3.263 C 12.58 3.26 12.701 3.311 12.785 3.403 C 12.88 3.497 12.88 3.637 12.88 3.73 L 12.644 4.895 C 13.424 5.143 14.147 5.539 14.774 6.061 C 14.869 6.154 14.916 6.248 14.916 6.34 C 14.916 6.433 14.869 6.573 14.774 6.62 L 13.969 7.413 C 13.902 7.496 13.803 7.548 13.695 7.557 C 13.587 7.566 13.481 7.531 13.401 7.459 Z" fill="hsl(0, 0%, 100%)"></path></g></svg>