<svg xmlns="http://www.w3.org/2000/svg" xmlns:xlink="http://www.w3.org/1999/xlink" viewBox="0 0 62 14"><g id="ss1895667431_1"><path d="M 0 0 L 62 0 L 62 14 L 0 14 Z" fill="transparent" opacity="0.3"></path><path d="M 34.541 0.196 L 38.351 0.196 L 36.432 13.804 L 32.623 13.804 L 34.542 0.196 Z M 29.716 0.196 L 27.148 8.036 L 26.019 0.196 L 23.339 0.196 L 19.951 8.008 L 19.557 0.224 L 15.832 0.224 L 17.13 13.832 L 20.207 13.832 L 23.988 5.208 L 25.314 13.804 L 28.333 13.804 L 33.329 0.196 Z M 61.802 8.12 L 52.744 8.12 C 52.801 9.884 53.845 11.06 55.425 11.06 C 56.61 11.06 57.542 10.444 58.276 9.24 L 61.352 10.612 C 60.25 12.656 58.049 14 55.312 14 C 51.587 14 49.103 11.508 49.103 7.504 C 49.103 3.108 52.01 0 56.13 0 C 59.742 0 62 2.408 62 6.188 C 62 6.804 61.944 7.448 61.802 8.12 Z M 58.388 5.516 C 58.388 3.948 57.485 2.94 56.074 2.94 C 54.606 2.94 53.365 3.976 53.054 5.516 Z M 3.894 4.312 L 0 8.82 L 6.971 8.82 L 7.76 6.692 L 4.77 6.692 L 6.604 4.592 L 6.604 4.536 L 5.418 2.52 L 10.751 2.52 L 6.603 13.804 L 9.425 13.804 L 14.421 0.196 L 1.524 0.196 Z M 44.56 2.94 C 45.915 2.94 47.099 3.668 48.116 4.9 L 48.652 1.064 C 47.692 0.42 46.394 0.028 44.673 0.028 C 41.258 0.028 39.339 2.016 39.339 4.536 C 39.339 6.272 40.327 7.364 41.936 8.036 L 42.697 8.372 C 44.137 8.988 44.531 9.296 44.531 9.94 C 44.531 10.612 43.882 11.032 42.895 11.032 C 41.258 11.032 39.932 10.22 38.944 8.792 L 38.379 12.712 C 39.509 13.58 40.976 14.028 42.895 14.028 C 46.141 14.028 48.144 12.18 48.144 9.576 C 48.144 7.812 47.354 6.692 45.378 5.796 L 44.531 5.404 C 43.346 4.9 42.952 4.592 42.952 4.032 C 42.979 3.416 43.516 2.94 44.56 2.94 Z" fill="hsl(0, 0%, 100%)"></path></g></svg>