<svg width="24" height="24" viewBox="0 0 24 24" fill="none" xmlns="http://www.w3.org/2000/svg">
<path d="M1 16V4H19" stroke="#48ADFF" stroke-width="1.5" stroke-linecap="round" stroke-linejoin="round"/>
<path d="M16 8H22.4C22.5591 8 22.7117 8.06321 22.8243 8.17574C22.9368 8.28826 23 8.44087 23 8.6V19.4C23 19.5591 22.9368 19.7117 22.8243 19.8243C22.7117 19.9368 22.5591 20 22.4 20H16M16 8V20M16 8H12M16 20H12M12 8H5.6C5.44087 8 5.28826 8.06321 5.17574 8.17574C5.06321 8.28826 5 8.44087 5 8.6V19.4C5 19.5591 5.06321 19.7117 5.17574 19.8243C5.28826 19.9368 5.44087 20 5.6 20H12M12 8V20" stroke="#2451FF" stroke-width="1.5" stroke-linecap="round" stroke-linejoin="round"/>
</svg>
