<svg width="24" height="24" viewBox="0 0 24 24" fill="none" xmlns="http://www.w3.org/2000/svg">
<path d="M19.9993 14.5L19.2593 9.696C19.1867 9.2241 18.9477 8.79373 18.5855 8.48268C18.2233 8.17163 17.7618 8.00042 17.2843 8H6.71532C6.23753 7.99994 5.7755 8.17094 5.41286 8.48203C5.05023 8.79312 4.81094 9.22376 4.73832 9.696L3.35332 18.696C3.30949 18.981 3.32781 19.2721 3.40702 19.5494C3.48624 19.8267 3.62448 20.0836 3.81226 20.3024C4.00005 20.5212 4.23293 20.6969 4.49496 20.8173C4.75698 20.9377 5.04195 21 5.33032 21H11.9993" stroke="#2451FF" stroke-width="1.5" stroke-linecap="round" stroke-linejoin="round"/>
<path d="M14 19L17 22L22 17" stroke="#48ADFF" stroke-width="1.5" stroke-linecap="round" stroke-linejoin="round"/>
<path d="M14 5C14 4.46957 13.7893 3.96086 13.4142 3.58579C13.0391 3.21071 12.5304 3 12 3C11.4696 3 10.9609 3.21071 10.5858 3.58579C10.2107 3.96086 10 4.46957 10 5" stroke="#2451FF" stroke-width="1.5" stroke-linecap="round" stroke-linejoin="round"/>
</svg>
